<?xml version="1.0" encoding="UTF-8"?>
<svg id="Capa_2" data-name="Capa 2" xmlns="http://www.w3.org/2000/svg" viewBox="0 0 905.14 905.14">
  <defs>
    <style>
      .cls-1 {
        fill: #0e0e0e;
      }

      .cls-2 {
        fill: #f8f7f7;
      }
    </style>
  </defs>
  <g id="Capa_1-2" data-name="Capa 1">
    <g>
      <rect class="cls-1" width="905.14" height="905.14" rx="94.52" ry="94.52"/>
      <g>
        <path class="cls-2" d="m716.49,563.54c0,84.27-68.31,152.54-152.54,152.54s-150.37-66.08-152.53-148.46c-.06-2.23,1.78-4.08,4.02-4.08h75.28c2.16,0,3.86,1.72,3.98,3.87,2.15,38.99,36.5,69.42,76.96,65.06,31.79-3.43,57.54-29.06,61.14-60.83,4.75-41.9-27.9-77.45-68.85-77.45h-222.33c-4.55,0-9.05-.2-13.48-.6-78.16-6.78-139.5-72.22-139.5-151.94,0-84.27,68.51-152.58,152.98-152.58s150.76,66.12,152.92,148.5c.06,2.23-1.78,4.08-4.02,4.08h-75.28c-2.16,0-3.86-1.72-3.98-3.87-2-36.52-32.05-65.48-68.85-65.48s-68.95,31.03-68.95,69.35,30.87,69.31,68.95,69.31h221.53c4.67,0,9.29.2,13.84.64,77.77,6.98,138.7,72.34,138.7,151.94Z"/>
        <path class="cls-2" d="m328.15,636.87v75.21c0,2.2-1.79,3.99-3.99,3.99h-130.69c-2.2,0-3.99-1.79-3.99-3.99v-127.34c0-4.05,3.28-7.33,7.33-7.33h71.87c2.2,0,3.99,1.79,3.99,3.99v44.15c0,4.05,3.28,7.33,7.33,7.33h44.15c2.2,0,3.99,1.79,3.99,3.99Z"/>
        <path class="cls-2" d="m716.49,193.06v130.73c0,2.2-1.79,3.99-3.99,3.99h-75.21c-2.2,0-3.99-1.79-3.99-3.99v-47.34c0-2.29-1.86-4.15-4.15-4.15h-47.38c-2.2,0-3.99-1.79-3.99-3.99v-75.25c0-2.2,1.79-3.99,3.99-3.99h130.73c2.2,0,3.99,1.79,3.99,3.99Z"/>
      </g>
    </g>
  </g>
</svg>