<?xml version="1.0" encoding="UTF-8"?>
<svg id="Capa_2" data-name="Capa 2" xmlns="http://www.w3.org/2000/svg" viewBox="0 0 283.47 283.02">
  <defs>
    <style>
      .cls-1 {
        fill: #1d93b9;
      }
    </style>
  </defs>
  <g id="Capa_1-2" data-name="Capa 1">
    <g>
      <path class="cls-1" d="m283.47,201.1c0,45.25-36.69,81.92-81.92,81.92s-80.75-35.49-81.91-79.73c-.03-1.2.96-2.19,2.16-2.19h40.43c1.16,0,2.07.92,2.14,2.08,1.15,20.94,19.6,37.28,41.33,34.94,17.07-1.84,30.9-15.61,32.83-32.67,2.55-22.5-14.98-41.59-36.97-41.59h-119.4c-2.44,0-4.86-.11-7.24-.32C32.94,159.89,0,124.75,0,81.94,0,36.69,36.79,0,82.15,0s80.96,35.51,82.12,79.75c.03,1.2-.96,2.19-2.16,2.19h-40.43c-1.16,0-2.07-.92-2.14-2.08-1.07-19.61-17.21-35.16-36.97-35.16s-37.03,16.66-37.03,37.24,16.58,37.22,37.03,37.22h118.97c2.51,0,4.99.11,7.43.34,41.76,3.75,74.49,38.85,74.49,81.6Z"/>
      <path class="cls-1" d="m74.91,240.48v40.39c0,1.18-.96,2.14-2.14,2.14H2.59c-1.18,0-2.14-.96-2.14-2.14v-68.39c0-2.17,1.76-3.94,3.94-3.94h38.6c1.18,0,2.14.96,2.14,2.14v23.71c0,2.17,1.76,3.94,3.94,3.94h23.71c1.18,0,2.14.96,2.14,2.14Z"/>
      <path class="cls-1" d="m283.47,2.14v70.2c0,1.18-.96,2.14-2.14,2.14h-40.39c-1.18,0-2.14-.96-2.14-2.14v-25.42c0-1.23-1-2.23-2.23-2.23h-25.44c-1.18,0-2.14-.96-2.14-2.14V2.14c0-1.18.96-2.14,2.14-2.14h70.2c1.18,0,2.14.96,2.14,2.14Z"/>
    </g>
  </g>
</svg>