<?xml version="1.0" encoding="UTF-8"?>
<svg id="Capa_2" data-name="Capa 2" xmlns="http://www.w3.org/2000/svg" viewBox="0 0 489.86 489.86">
  <defs>
    <style>
      .cls-1 {
        fill: #3c3c3b;
      }

      .cls-2 {
        fill: #6c95ba;
      }

      .cls-3 {
        fill: #ededed;
      }
    </style>
  </defs>
  <g id="Capa_1-2" data-name="Capa 1">
    <g>
      <rect class="cls-3" width="489.86" height="489.86"/>
      <g>
        <path class="cls-1" d="M93.89,230.35c-2.12-1.25-4.91-2.41-7.6-2.41-1.44,0-3.08,.38-3.95,1.25-.48,.48-.87,1.25-.87,1.93,0,.96,.67,1.54,1.35,1.92,.96,.58,2.41,.87,4.14,1.44l3.66,1.16c2.41,.77,4.91,1.73,7.12,3.75,2.5,2.31,3.37,4.91,3.37,8.18,0,5.68-2.5,9.33-4.43,11.26-4.23,4.23-9.43,4.91-13.95,4.91-5.77,0-12.03-1.25-17.61-6.16l5.87-9.33c1.35,1.16,3.27,2.5,4.72,3.18,1.92,.96,3.95,1.35,5.77,1.35,.87,0,3.08,0,4.33-.96,.87-.67,1.44-1.73,1.44-2.79,0-.77-.29-1.73-1.54-2.5-.96-.58-2.21-.96-4.23-1.54l-3.46-1.06c-2.5-.77-5.1-2.12-6.93-3.95-2.02-2.12-3.08-4.52-3.08-7.8,0-4.14,1.64-7.6,4.14-9.91,3.85-3.56,9.05-4.33,12.99-4.33,6.35,0,10.78,1.64,14.24,3.66l-5.49,8.76Z"/>
        <path class="cls-1" d="M139.51,219.38h13.86v42.92h-13.86v-5.2c-3.75,5.77-9.14,6.64-12.7,6.64-6.16,0-11.36-1.54-16.07-6.54-4.52-4.81-6.26-10.39-6.26-16.07,0-7.22,2.7-13.38,6.64-17.32,3.75-3.75,8.95-5.87,14.92-5.87,3.66,0,9.53,.87,13.47,6.25v-4.81Zm-17.61,13.57c-1.44,1.44-3.18,3.95-3.18,7.8s1.64,6.35,2.89,7.7c1.93,2.02,4.91,3.37,8.18,3.37,2.79,0,5.39-1.16,7.22-2.98,1.83-1.73,3.37-4.43,3.37-8.08,0-3.08-1.16-5.97-3.18-7.89-2.12-2.02-5.2-2.98-7.7-2.98-2.98,0-5.77,1.25-7.6,3.08Z"/>
        <path class="cls-1" d="M161.35,219.38h13.86v5.1c4.23-5.39,9.24-6.26,13.28-6.26,3.75,0,8.66,.67,12.32,4.33,4.04,4.04,4.33,9.14,4.33,12.61v27.14h-13.86v-22.04c0-2.79-.1-6.35-2.31-8.57-1.06-1.06-2.79-1.92-5.29-1.92-2.89,0-4.72,1.16-5.77,2.31-2.31,2.31-2.7,5.39-2.7,8.18v22.04h-13.86v-42.92Z"/>
        <path class="cls-1" d="M227.37,230.54v31.76h-13.86v-31.76h-4.81v-11.16h4.81v-13.86h13.86v13.86h8.57v11.16h-8.57Z"/>
        <path class="cls-2" d="M246.84,235.63l12.61,.67-14.53,26.85-8.66-.38,10.59-27.14Zm5.87-29.54c4.91,0,8.76,3.85,8.76,8.76s-3.85,8.76-8.76,8.76-8.76-3.85-8.76-8.76,3.85-8.76,8.76-8.76Z"/>
        <path class="cls-1" d="M300.12,219.38h13.86v42.92h-13.86v-5.2c-3.75,5.77-9.14,6.64-12.7,6.64-6.16,0-11.36-1.54-16.07-6.54-4.52-4.81-6.26-10.39-6.26-16.07,0-7.22,2.7-13.38,6.64-17.32s8.95-5.87,14.92-5.87c3.66,0,9.53,.87,13.47,6.25v-4.81Zm-17.61,13.57c-1.44,1.44-3.18,3.95-3.18,7.8s1.64,6.35,2.89,7.7c1.93,2.02,4.91,3.37,8.18,3.37,2.79,0,5.39-1.16,7.22-2.98,1.83-1.73,3.37-4.43,3.37-8.08,0-3.08-1.16-5.97-3.18-7.89-2.12-2.02-5.2-2.98-7.7-2.98-2.98,0-5.77,1.25-7.6,3.08Z"/>
        <path class="cls-1" d="M354.15,219.38h13.68v40.32c0,6.06-.28,12.9-5.23,18.29-5.23,5.68-13.21,6.35-17.87,6.35-5.61,0-12.35-.87-17.68-5.49-2.66-2.31-5.42-5.97-6.37-11.36h14.92c.57,2.21,1.9,3.47,3.04,4.23,1.62,1.06,3.9,1.44,5.89,1.44,3.9,0,5.89-1.44,6.84-2.31,2.66-2.6,2.76-7.12,2.76-8.95v-4.91c-1.62,2.7-4.85,6.45-12.64,6.45-6.56,0-11.59-2.12-15.49-6.06-3.42-3.56-6.18-8.76-6.18-16.17s2.66-13.38,6.27-17.13c2.57-2.7,7.51-6.16,15.4-6.16s11.12,4.14,12.64,6.45v-5Zm-17.01,13.38c-2.09,2.02-3.23,5.39-3.23,7.99,0,2.79,1.05,5.68,2.95,7.7,1.9,2.02,4.47,3.08,7.7,3.08,3.61,0,5.99-1.44,7.41-2.79,2.09-2.02,3.33-5.01,3.33-8.18,0-3.37-1.43-6.16-3.23-7.89-2-1.83-4.94-2.7-7.41-2.7-3.04,0-5.8,1.16-7.51,2.79Z"/>
        <path class="cls-1" d="M418.29,256.81c-3.85,3.85-10.39,6.93-18.77,6.93s-14.92-3.08-18.77-6.93c-4.33-4.33-6.45-10.49-6.45-15.97s2.12-11.65,6.45-15.98c3.85-3.85,10.39-6.93,18.77-6.93s14.92,3.08,18.77,6.93c4.33,4.33,6.45,10.49,6.45,15.98s-2.12,11.64-6.45,15.97Zm-26.56-24.06c-2.02,2.02-3.18,4.62-3.18,8.09,0,3.95,1.54,6.45,3.18,8.08,1.73,1.73,4.23,3.08,7.89,3.08,3.08,0,5.68-1.06,7.7-3.08s3.18-4.62,3.18-8.08-1.15-6.06-3.18-8.09c-2.02-2.02-4.62-3.08-7.8-3.08s-5.77,1.06-7.79,3.08Z"/>
      </g>
    </g>
  </g>
</svg>