<?xml version="1.0" encoding="UTF-8"?>
<svg id="Capa_2" data-name="Capa 2" xmlns="http://www.w3.org/2000/svg" viewBox="0 0 489.86 489.86">
  <defs>
    <style>
      .cls-1 {
        fill: #3c3c3b;
      }

      .cls-2 {
        fill: #ededed;
      }
    </style>
  </defs>
  <g id="Capa_1-2" data-name="Capa 1">
    <g>
      <rect class="cls-2" width="489.86" height="489.86"/>
      <g>
        <polygon class="cls-1" points="323.98 157.03 286.82 157.03 286.56 157.67 305.94 211.31 326.88 268.52 283.39 268.52 283.42 268.44 241.89 268.44 215.92 332.83 258.09 332.83 271.53 299.62 337.95 299.62 351.13 332.83 393.3 332.83 323.98 157.03"/>
        <g>
          <rect class="cls-1" x="155.11" y="153.29" width="37.56" height="37.56"/>
          <path class="cls-1" d="m201.46,242.47c-6.85-6.59-16.34-10.54-23.99-13.44l-13.18-5.01c-11.86-4.48-17.92-6.06-22.14-10.02-2.64-2.37-3.95-5.53-3.95-9.75,0-4.48,1.85-8.43,4.48-11.07.83-.93,1.74-1.71,2.68-2.38v-37.44c-12.4,1.33-23.71,5.55-33.52,15.57-10.54,10.81-15.29,23.99-15.29,39.54,0,8.43,1.32,20.82,10.54,30.57,6.85,7.38,16.34,11.07,24.51,13.97l14.5,5.01c5.01,1.85,15.81,5.8,20.56,9.75,3.69,3.16,6.06,6.85,6.06,12.65,0,6.59-2.9,11.33-6.33,14.23-5.8,5.01-13.18,6.06-18.45,6.06-.99,0-1.96-.03-2.92-.1v35.87c1.31.04,2.63.07,3.97.07,11.6,0,34.26-1.58,49.82-17.92,9.23-9.49,15.55-25.3,15.55-43.49,0-10.28-2.64-22.93-12.91-32.68Z"/>
        </g>
      </g>
    </g>
  </g>
</svg>