<?xml version="1.0" encoding="UTF-8"?>
<svg id="Capa_2" data-name="Capa 2" xmlns="http://www.w3.org/2000/svg" viewBox="0 0 296.75 183.28">
  <defs>
    <style>
      .cls-1 {
        fill: #121c2f;
      }
    </style>
  </defs>
  <g id="Capa_1-2" data-name="Capa 1">
    <g>
      <polygon class="cls-1" points="227.43 3.74 190.27 3.74 190.01 4.38 209.39 58.02 230.33 115.23 186.84 115.23 186.87 115.15 145.33 115.15 119.36 179.54 161.54 179.54 174.98 146.33 241.4 146.33 254.58 179.54 296.75 179.54 227.43 3.74"/>
      <g>
        <rect class="cls-1" x="58.55" width="37.56" height="37.56"/>
        <path class="cls-1" d="m104.9,89.18c-6.85-6.59-16.34-10.54-23.99-13.44l-13.18-5.01c-11.86-4.48-17.92-6.06-22.14-10.02-2.64-2.37-3.95-5.53-3.95-9.75,0-4.48,1.85-8.43,4.48-11.07.83-.93,1.74-1.71,2.68-2.38V.08c-12.4,1.33-23.71,5.55-33.52,15.57C4.74,26.45,0,39.63,0,55.18c0,8.43,1.32,20.82,10.54,30.57,6.85,7.38,16.34,11.07,24.51,13.97l14.5,5.01c5.01,1.85,15.81,5.8,20.56,9.75,3.69,3.16,6.06,6.85,6.06,12.65,0,6.59-2.9,11.33-6.33,14.23-5.8,5.01-13.18,6.06-18.45,6.06-.99,0-1.96-.03-2.92-.1v35.87c1.31.04,2.63.07,3.97.07,11.6,0,34.26-1.58,49.82-17.92,9.23-9.49,15.55-25.3,15.55-43.49,0-10.28-2.64-22.93-12.91-32.68Z"/>
      </g>
    </g>
  </g>
</svg>