<?xml version="1.0" encoding="UTF-8" standalone="no"?>
<svg
   width="112.7573"
   height="112.66197"
   viewBox="0 0 11.546347 11.536586"
   preserveAspectRatio="xMinYMin meet"
   version="1.1"
   id="svg8"
   sodipodi:docname="Socket-io.svg"
   inkscape:version="1.1 (c68e22c387, 2021-05-23)"
   xmlns:inkscape="http://www.inkscape.org/namespaces/inkscape"
   xmlns:sodipodi="http://sodipodi.sourceforge.net/DTD/sodipodi-0.dtd"
   xmlns="http://www.w3.org/2000/svg"
   xmlns:svg="http://www.w3.org/2000/svg">
  <defs
     id="defs12" />
  <sodipodi:namedview
     id="namedview10"
     pagecolor="#ffffff"
     bordercolor="#666666"
     borderopacity="1.0"
     inkscape:pageshadow="2"
     inkscape:pageopacity="0.0"
     inkscape:pagecheckerboard="0"
     showgrid="false"
     lock-margins="true"
     fit-margin-top="10"
     fit-margin-left="10"
     fit-margin-right="10"
     fit-margin-bottom="10"
     height="112.66197px"
     inkscape:zoom="3.3850616"
     inkscape:cx="87.590726"
     inkscape:cy="15.213903"
     inkscape:window-width="1920"
     inkscape:window-height="1017"
     inkscape:window-x="-8"
     inkscape:window-y="-8"
     inkscape:window-maximized="1"
     inkscape:current-layer="svg8" />
  <path
     d="M 4.5704018,1.1737773 C 5.799338,0.85861144 7.1575786,1.0422646 8.2414044,1.7111767 9.6064253,2.5274845 10.497572,4.0716255 10.520234,5.6611266 10.570122,7.2664707 9.7334037,8.8582581 8.3888,9.7312381 6.892267,10.737978 4.8220777,10.776559 3.2937806,9.8196771 1.7360446,8.8899861 0.82676794,7.0147983 1.0603518,5.2144134 1.2484996,3.3119927 2.7178754,1.6340935 4.5704018,1.173818 Z"
     fill="#010101"
     id="path2"
     style="stroke-width:0.0380864" />
  <path
     d="M 4.3821788,1.9515403 C 6.7040829,1.0218492 9.5520365,2.7383312 9.7923621,5.2280455 10.166525,7.4682913 8.3071807,9.7448341 6.0374172,9.8106101 3.8787899,10.026027 1.7927168,8.1961238 1.731512,6.0284694 1.5705206,4.2734453 2.7269405,2.532017 4.3821788,1.9515403 Z"
     fill="#ffffff"
     id="path4"
     style="stroke-width:0.0380864" />
  <path
     d="M 4.6157255,5.5273657 C 5.6565147,4.6770476 6.6746041,3.7972498 7.7380543,2.9718779 7.1802395,3.8290138 6.6065815,4.6747623 6.0487667,5.5318602 c -0.4784428,0.0023 -0.9568466,0.0023 -1.4330412,-0.00451 z m 0.879796,0.4738731 c 0.48069,0 0.9591328,0 1.4375755,0.00681 C 5.8855279,6.8538024 4.8719711,7.7403791 3.8062347,8.5635038 4.3640496,7.7063678 4.9377084,6.8583721 5.4955215,6.001237 Z"
     fill="#010101"
     id="path6"
     style="stroke-width:0.0380864" />
</svg>
