<svg xmlns="http://www.w3.org/2000/svg" xmlns:xlink="http://www.w3.org/1999/xlink" width="508" zoomAndPan="magnify" viewBox="0 0 381 95.249998" height="127" preserveAspectRatio="xMidYMid meet" version="1.0"><defs><g/></defs><g fill="#ffffff" fill-opacity="1"><g transform="translate(16.662246, 64.126882)"><g><path d="M 22.015625 0.53125 C 18.160156 0.53125 14.832031 -0.25 12.03125 -1.8125 C 9.226562 -3.382812 7.066406 -5.625 5.546875 -8.53125 C 4.023438 -11.445312 3.265625 -14.90625 3.265625 -18.90625 C 3.265625 -22.90625 4.023438 -26.351562 5.546875 -29.25 C 7.066406 -32.144531 9.21875 -34.378906 12 -35.953125 C 14.789062 -37.523438 18.128906 -38.3125 22.015625 -38.3125 C 24.585938 -38.3125 26.988281 -37.9375 29.21875 -37.1875 C 31.457031 -36.4375 33.328125 -35.328125 34.828125 -33.859375 L 32.46875 -28.296875 C 30.863281 -29.648438 29.238281 -30.617188 27.59375 -31.203125 C 25.945312 -31.796875 24.160156 -32.09375 22.234375 -32.09375 C 18.554688 -32.09375 15.707031 -30.957031 13.6875 -28.6875 C 11.664062 -26.414062 10.65625 -23.15625 10.65625 -18.90625 C 10.65625 -14.65625 11.65625 -11.382812 13.65625 -9.09375 C 15.65625 -6.8125 18.515625 -5.671875 22.234375 -5.671875 C 24.160156 -5.671875 25.945312 -5.96875 27.59375 -6.5625 C 29.238281 -7.15625 30.863281 -8.128906 32.46875 -9.484375 L 34.828125 -3.90625 C 33.328125 -2.476562 31.457031 -1.378906 29.21875 -0.609375 C 26.988281 0.148438 24.585938 0.53125 22.015625 0.53125 Z M 22.015625 0.53125 "/></g></g></g><g fill="#ffffff" fill-opacity="1"><g transform="translate(53.890917, 64.126882)"><g><path d="M 12.8125 0.53125 C 10.875 0.53125 9.144531 0.164062 7.625 -0.5625 C 6.113281 -1.289062 4.921875 -2.289062 4.046875 -3.5625 C 3.171875 -4.832031 2.734375 -6.253906 2.734375 -7.828125 C 2.734375 -9.785156 3.269531 -11.34375 4.34375 -12.5 C 5.414062 -13.664062 7.109375 -14.515625 9.421875 -15.046875 C 11.742188 -15.585938 14.78125 -15.859375 18.53125 -15.859375 L 21.703125 -15.859375 L 21.703125 -11.78125 L 18.75 -11.78125 C 17.070312 -11.78125 15.648438 -11.71875 14.484375 -11.59375 C 13.328125 -11.46875 12.382812 -11.269531 11.65625 -11 C 10.925781 -10.738281 10.390625 -10.375 10.046875 -9.90625 C 9.703125 -9.445312 9.53125 -8.878906 9.53125 -8.203125 C 9.53125 -6.984375 9.957031 -6.035156 10.8125 -5.359375 C 11.675781 -4.679688 12.859375 -4.34375 14.359375 -4.34375 C 15.578125 -4.34375 16.664062 -4.625 17.625 -5.1875 C 18.59375 -5.757812 19.367188 -6.535156 19.953125 -7.515625 C 20.546875 -8.503906 20.84375 -9.609375 20.84375 -10.828125 L 20.84375 -16.828125 C 20.84375 -18.609375 20.382812 -19.875 19.46875 -20.625 C 18.5625 -21.375 17.109375 -21.75 15.109375 -21.75 C 13.640625 -21.75 12.128906 -21.535156 10.578125 -21.109375 C 9.023438 -20.679688 7.425781 -19.984375 5.78125 -19.015625 L 3.859375 -23.78125 C 4.890625 -24.46875 6.066406 -25.039062 7.390625 -25.5 C 8.710938 -25.96875 10.097656 -26.332031 11.546875 -26.59375 C 12.992188 -26.863281 14.394531 -27 15.75 -27 C 18.289062 -27 20.4375 -26.601562 22.1875 -25.8125 C 23.9375 -25.03125 25.253906 -23.835938 26.140625 -22.234375 C 27.035156 -20.628906 27.484375 -18.539062 27.484375 -15.96875 L 27.484375 0 L 21.328125 0 L 21.328125 -5.515625 L 21.484375 -5.515625 C 21.128906 -4.335938 20.546875 -3.289062 19.734375 -2.375 C 18.929688 -1.46875 17.953125 -0.753906 16.796875 -0.234375 C 15.640625 0.273438 14.3125 0.53125 12.8125 0.53125 Z M 12.8125 0.53125 "/></g></g></g><g fill="#ffffff" fill-opacity="1"><g transform="translate(85.066576, 64.126882)"><g><path d="M 3.796875 0 L 3.796875 -26.46875 L 10.28125 -26.46875 L 10.28125 -20.03125 L 10.078125 -20.03125 C 10.609375 -22.101562 11.613281 -23.726562 13.09375 -24.90625 C 14.582031 -26.09375 16.503906 -26.753906 18.859375 -26.890625 L 21.375 -27.109375 L 21.859375 -21 L 17.515625 -20.625 C 15.335938 -20.414062 13.675781 -19.71875 12.53125 -18.53125 C 11.394531 -17.351562 10.828125 -15.785156 10.828125 -13.828125 L 10.828125 0 Z M 3.796875 0 "/></g></g></g><g fill="#ffffff" fill-opacity="1"><g transform="translate(107.564475, 64.126882)"><g><path d="M 13.015625 0.53125 C 9.941406 0.53125 7.632812 -0.296875 6.09375 -1.953125 C 4.5625 -3.617188 3.796875 -6.039062 3.796875 -9.21875 L 3.796875 -37.765625 L 10.765625 -37.765625 L 10.765625 -9.640625 C 10.765625 -8.640625 10.90625 -7.800781 11.1875 -7.125 C 11.476562 -6.445312 11.910156 -5.925781 12.484375 -5.5625 C 13.054688 -5.207031 13.753906 -5.03125 14.578125 -5.03125 C 15.035156 -5.03125 15.476562 -5.054688 15.90625 -5.109375 C 16.34375 -5.171875 16.773438 -5.253906 17.203125 -5.359375 L 17.3125 -0.046875 C 16.59375 0.128906 15.894531 0.269531 15.21875 0.375 C 14.539062 0.476562 13.804688 0.53125 13.015625 0.53125 Z M 13.015625 0.53125 "/></g></g></g><g fill="#ffffff" fill-opacity="1"><g transform="translate(125.455664, 64.126882)"><g><path d="M 16.078125 0.53125 C 13.285156 0.53125 10.863281 -0.03125 8.8125 -1.15625 C 6.757812 -2.28125 5.171875 -3.878906 4.046875 -5.953125 C 2.921875 -8.023438 2.359375 -10.453125 2.359375 -13.234375 C 2.359375 -16.054688 2.921875 -18.492188 4.046875 -20.546875 C 5.171875 -22.597656 6.757812 -24.1875 8.8125 -25.3125 C 10.863281 -26.4375 13.285156 -27 16.078125 -27 C 18.898438 -27 21.328125 -26.4375 23.359375 -25.3125 C 25.390625 -24.1875 26.96875 -22.585938 28.09375 -20.515625 C 29.226562 -18.441406 29.796875 -16.015625 29.796875 -13.234375 C 29.796875 -10.453125 29.226562 -8.023438 28.09375 -5.953125 C 26.96875 -3.878906 25.390625 -2.28125 23.359375 -1.15625 C 21.328125 -0.03125 18.898438 0.53125 16.078125 0.53125 Z M 16.078125 -4.921875 C 18.179688 -4.921875 19.835938 -5.644531 21.046875 -7.09375 C 22.265625 -8.539062 22.875 -10.601562 22.875 -13.28125 C 22.875 -15.96875 22.265625 -18.015625 21.046875 -19.421875 C 19.835938 -20.828125 18.179688 -21.53125 16.078125 -21.53125 C 14.003906 -21.53125 12.347656 -20.828125 11.109375 -19.421875 C 9.878906 -18.015625 9.265625 -15.96875 9.265625 -13.28125 C 9.265625 -10.601562 9.878906 -8.539062 11.109375 -7.09375 C 12.347656 -5.644531 14.003906 -4.921875 16.078125 -4.921875 Z M 16.078125 -4.921875 "/></g></g></g><g fill="#ffffff" fill-opacity="1"><g transform="translate(157.595529, 64.126882)"><g><path d="M 13.875 0.53125 C 12.34375 0.53125 10.859375 0.40625 9.421875 0.15625 C 7.992188 -0.09375 6.679688 -0.429688 5.484375 -0.859375 C 4.296875 -1.285156 3.253906 -1.835938 2.359375 -2.515625 L 4.171875 -7.171875 C 5.066406 -6.609375 6.050781 -6.117188 7.125 -5.703125 C 8.195312 -5.296875 9.300781 -4.992188 10.4375 -4.796875 C 11.582031 -4.597656 12.691406 -4.5 13.765625 -4.5 C 15.628906 -4.5 17.015625 -4.753906 17.921875 -5.265625 C 18.828125 -5.785156 19.28125 -6.53125 19.28125 -7.5 C 19.28125 -8.320312 19.003906 -8.945312 18.453125 -9.375 C 17.898438 -9.800781 17.019531 -10.101562 15.8125 -10.28125 L 10.1875 -11.25 C 7.820312 -11.644531 6.03125 -12.484375 4.8125 -13.765625 C 3.601562 -15.054688 3 -16.664062 3 -18.59375 C 3 -20.269531 3.460938 -21.734375 4.390625 -22.984375 C 5.316406 -24.234375 6.65625 -25.210938 8.40625 -25.921875 C 10.15625 -26.640625 12.226562 -27 14.625 -27 C 15.914062 -27 17.191406 -26.882812 18.453125 -26.65625 C 19.722656 -26.425781 20.898438 -26.085938 21.984375 -25.640625 C 23.078125 -25.191406 24.019531 -24.628906 24.8125 -23.953125 L 22.875 -19.28125 C 22.195312 -19.851562 21.394531 -20.335938 20.46875 -20.734375 C 19.539062 -21.128906 18.578125 -21.429688 17.578125 -21.640625 C 16.578125 -21.859375 15.613281 -21.96875 14.6875 -21.96875 C 12.820312 -21.96875 11.441406 -21.691406 10.546875 -21.140625 C 9.660156 -20.585938 9.21875 -19.828125 9.21875 -18.859375 C 9.21875 -18.078125 9.472656 -17.460938 9.984375 -17.015625 C 10.503906 -16.566406 11.320312 -16.253906 12.4375 -16.078125 L 17.953125 -15.109375 C 20.484375 -14.679688 22.375 -13.867188 23.625 -12.671875 C 24.875 -11.472656 25.5 -9.859375 25.5 -7.828125 C 25.5 -6.078125 25.015625 -4.578125 24.046875 -3.328125 C 23.085938 -2.078125 21.738281 -1.117188 20 -0.453125 C 18.269531 0.203125 16.226562 0.53125 13.875 0.53125 Z M 13.875 0.53125 "/></g></g></g><g fill="#ffffff" fill-opacity="1"><g transform="translate(185.182245, 64.126882)"><g/></g></g><g fill="#ffffff" fill-opacity="1"><g transform="translate(200.287983, 64.126882)"><g><path d="M 22.015625 0.53125 C 18.160156 0.53125 14.832031 -0.25 12.03125 -1.8125 C 9.226562 -3.382812 7.066406 -5.625 5.546875 -8.53125 C 4.023438 -11.445312 3.265625 -14.90625 3.265625 -18.90625 C 3.265625 -22.90625 4.023438 -26.351562 5.546875 -29.25 C 7.066406 -32.144531 9.21875 -34.378906 12 -35.953125 C 14.789062 -37.523438 18.128906 -38.3125 22.015625 -38.3125 C 24.585938 -38.3125 26.988281 -37.9375 29.21875 -37.1875 C 31.457031 -36.4375 33.328125 -35.328125 34.828125 -33.859375 L 32.46875 -28.296875 C 30.863281 -29.648438 29.238281 -30.617188 27.59375 -31.203125 C 25.945312 -31.796875 24.160156 -32.09375 22.234375 -32.09375 C 18.554688 -32.09375 15.707031 -30.957031 13.6875 -28.6875 C 11.664062 -26.414062 10.65625 -23.15625 10.65625 -18.90625 C 10.65625 -14.65625 11.65625 -11.382812 13.65625 -9.09375 C 15.65625 -6.8125 18.515625 -5.671875 22.234375 -5.671875 C 24.160156 -5.671875 25.945312 -5.96875 27.59375 -6.5625 C 29.238281 -7.15625 30.863281 -8.128906 32.46875 -9.484375 L 34.828125 -3.90625 C 33.328125 -2.476562 31.457031 -1.378906 29.21875 -0.609375 C 26.988281 0.148438 24.585938 0.53125 22.015625 0.53125 Z M 22.015625 0.53125 "/></g></g></g><g fill="#ffffff" fill-opacity="1"><g transform="translate(237.516666, 64.126882)"><g><path d="M 16.078125 0.53125 C 13.285156 0.53125 10.863281 -0.03125 8.8125 -1.15625 C 6.757812 -2.28125 5.171875 -3.878906 4.046875 -5.953125 C 2.921875 -8.023438 2.359375 -10.453125 2.359375 -13.234375 C 2.359375 -16.054688 2.921875 -18.492188 4.046875 -20.546875 C 5.171875 -22.597656 6.757812 -24.1875 8.8125 -25.3125 C 10.863281 -26.4375 13.285156 -27 16.078125 -27 C 18.898438 -27 21.328125 -26.4375 23.359375 -25.3125 C 25.390625 -24.1875 26.96875 -22.585938 28.09375 -20.515625 C 29.226562 -18.441406 29.796875 -16.015625 29.796875 -13.234375 C 29.796875 -10.453125 29.226562 -8.023438 28.09375 -5.953125 C 26.96875 -3.878906 25.390625 -2.28125 23.359375 -1.15625 C 21.328125 -0.03125 18.898438 0.53125 16.078125 0.53125 Z M 16.078125 -4.921875 C 18.179688 -4.921875 19.835938 -5.644531 21.046875 -7.09375 C 22.265625 -8.539062 22.875 -10.601562 22.875 -13.28125 C 22.875 -15.96875 22.265625 -18.015625 21.046875 -19.421875 C 19.835938 -20.828125 18.179688 -21.53125 16.078125 -21.53125 C 14.003906 -21.53125 12.347656 -20.828125 11.109375 -19.421875 C 9.878906 -18.015625 9.265625 -15.96875 9.265625 -13.28125 C 9.265625 -10.601562 9.878906 -8.539062 11.109375 -7.09375 C 12.347656 -5.644531 14.003906 -4.921875 16.078125 -4.921875 Z M 16.078125 -4.921875 "/></g></g></g><g fill="#ffffff" fill-opacity="1"><g transform="translate(269.656531, 64.126882)"><g><path d="M 3.796875 0 L 3.796875 -26.46875 L 10.28125 -26.46875 L 10.28125 -20.03125 L 10.078125 -20.03125 C 10.609375 -22.101562 11.613281 -23.726562 13.09375 -24.90625 C 14.582031 -26.09375 16.503906 -26.753906 18.859375 -26.890625 L 21.375 -27.109375 L 21.859375 -21 L 17.515625 -20.625 C 15.335938 -20.414062 13.675781 -19.71875 12.53125 -18.53125 C 11.394531 -17.351562 10.828125 -15.785156 10.828125 -13.828125 L 10.828125 0 Z M 3.796875 0 "/></g></g></g><g fill="#ffffff" fill-opacity="1"><g transform="translate(292.154429, 64.126882)"><g><path d="M 3.796875 0 L 3.796875 -26.46875 L 10.28125 -26.46875 L 10.28125 -20.03125 L 10.078125 -20.03125 C 10.609375 -22.101562 11.613281 -23.726562 13.09375 -24.90625 C 14.582031 -26.09375 16.503906 -26.753906 18.859375 -26.890625 L 21.375 -27.109375 L 21.859375 -21 L 17.515625 -20.625 C 15.335938 -20.414062 13.675781 -19.71875 12.53125 -18.53125 C 11.394531 -17.351562 10.828125 -15.785156 10.828125 -13.828125 L 10.828125 0 Z M 3.796875 0 "/></g></g></g><g fill="#ffffff" fill-opacity="1"><g transform="translate(314.652327, 64.126882)"><g><path d="M 12.8125 0.53125 C 10.875 0.53125 9.144531 0.164062 7.625 -0.5625 C 6.113281 -1.289062 4.921875 -2.289062 4.046875 -3.5625 C 3.171875 -4.832031 2.734375 -6.253906 2.734375 -7.828125 C 2.734375 -9.785156 3.269531 -11.34375 4.34375 -12.5 C 5.414062 -13.664062 7.109375 -14.515625 9.421875 -15.046875 C 11.742188 -15.585938 14.78125 -15.859375 18.53125 -15.859375 L 21.703125 -15.859375 L 21.703125 -11.78125 L 18.75 -11.78125 C 17.070312 -11.78125 15.648438 -11.71875 14.484375 -11.59375 C 13.328125 -11.46875 12.382812 -11.269531 11.65625 -11 C 10.925781 -10.738281 10.390625 -10.375 10.046875 -9.90625 C 9.703125 -9.445312 9.53125 -8.878906 9.53125 -8.203125 C 9.53125 -6.984375 9.957031 -6.035156 10.8125 -5.359375 C 11.675781 -4.679688 12.859375 -4.34375 14.359375 -4.34375 C 15.578125 -4.34375 16.664062 -4.625 17.625 -5.1875 C 18.59375 -5.757812 19.367188 -6.535156 19.953125 -7.515625 C 20.546875 -8.503906 20.84375 -9.609375 20.84375 -10.828125 L 20.84375 -16.828125 C 20.84375 -18.609375 20.382812 -19.875 19.46875 -20.625 C 18.5625 -21.375 17.109375 -21.75 15.109375 -21.75 C 13.640625 -21.75 12.128906 -21.535156 10.578125 -21.109375 C 9.023438 -20.679688 7.425781 -19.984375 5.78125 -19.015625 L 3.859375 -23.78125 C 4.890625 -24.46875 6.066406 -25.039062 7.390625 -25.5 C 8.710938 -25.96875 10.097656 -26.332031 11.546875 -26.59375 C 12.992188 -26.863281 14.394531 -27 15.75 -27 C 18.289062 -27 20.4375 -26.601562 22.1875 -25.8125 C 23.9375 -25.03125 25.253906 -23.835938 26.140625 -22.234375 C 27.035156 -20.628906 27.484375 -18.539062 27.484375 -15.96875 L 27.484375 0 L 21.328125 0 L 21.328125 -5.515625 L 21.484375 -5.515625 C 21.128906 -4.335938 20.546875 -3.289062 19.734375 -2.375 C 18.929688 -1.46875 17.953125 -0.753906 16.796875 -0.234375 C 15.640625 0.273438 14.3125 0.53125 12.8125 0.53125 Z M 12.8125 0.53125 "/></g></g></g><g fill="#ffffff" fill-opacity="1"><g transform="translate(345.827998, 64.126882)"><g><path d="M 13.015625 0.53125 C 9.941406 0.53125 7.632812 -0.296875 6.09375 -1.953125 C 4.5625 -3.617188 3.796875 -6.039062 3.796875 -9.21875 L 3.796875 -37.765625 L 10.765625 -37.765625 L 10.765625 -9.640625 C 10.765625 -8.640625 10.90625 -7.800781 11.1875 -7.125 C 11.476562 -6.445312 11.910156 -5.925781 12.484375 -5.5625 C 13.054688 -5.207031 13.753906 -5.03125 14.578125 -5.03125 C 15.035156 -5.03125 15.476562 -5.054688 15.90625 -5.109375 C 16.34375 -5.171875 16.773438 -5.253906 17.203125 -5.359375 L 17.3125 -0.046875 C 16.59375 0.128906 15.894531 0.269531 15.21875 0.375 C 14.539062 0.476562 13.804688 0.53125 13.015625 0.53125 Z M 13.015625 0.53125 "/></g></g></g><g fill="#ffffff" fill-opacity="1"><g transform="translate(16.662246, 64.126882)"><g><path d="M 22.015625 0.53125 C 18.160156 0.53125 14.832031 -0.25 12.03125 -1.8125 C 9.226562 -3.382812 7.066406 -5.625 5.546875 -8.53125 C 4.023438 -11.445312 3.265625 -14.90625 3.265625 -18.90625 C 3.265625 -22.90625 4.023438 -26.351562 5.546875 -29.25 C 7.066406 -32.144531 9.21875 -34.378906 12 -35.953125 C 14.789062 -37.523438 18.128906 -38.3125 22.015625 -38.3125 C 24.585938 -38.3125 26.988281 -37.9375 29.21875 -37.1875 C 31.457031 -36.4375 33.328125 -35.328125 34.828125 -33.859375 L 32.46875 -28.296875 C 30.863281 -29.648438 29.238281 -30.617188 27.59375 -31.203125 C 25.945312 -31.796875 24.160156 -32.09375 22.234375 -32.09375 C 18.554688 -32.09375 15.707031 -30.957031 13.6875 -28.6875 C 11.664062 -26.414062 10.65625 -23.15625 10.65625 -18.90625 C 10.65625 -14.65625 11.65625 -11.382812 13.65625 -9.09375 C 15.65625 -6.8125 18.515625 -5.671875 22.234375 -5.671875 C 24.160156 -5.671875 25.945312 -5.96875 27.59375 -6.5625 C 29.238281 -7.15625 30.863281 -8.128906 32.46875 -9.484375 L 34.828125 -3.90625 C 33.328125 -2.476562 31.457031 -1.378906 29.21875 -0.609375 C 26.988281 0.148438 24.585938 0.53125 22.015625 0.53125 Z M 22.015625 0.53125 "/></g></g></g><g fill="#ffffff" fill-opacity="1"><g transform="translate(53.890917, 64.126882)"><g><path d="M 12.8125 0.53125 C 10.875 0.53125 9.144531 0.164062 7.625 -0.5625 C 6.113281 -1.289062 4.921875 -2.289062 4.046875 -3.5625 C 3.171875 -4.832031 2.734375 -6.253906 2.734375 -7.828125 C 2.734375 -9.785156 3.269531 -11.34375 4.34375 -12.5 C 5.414062 -13.664062 7.109375 -14.515625 9.421875 -15.046875 C 11.742188 -15.585938 14.78125 -15.859375 18.53125 -15.859375 L 21.703125 -15.859375 L 21.703125 -11.78125 L 18.75 -11.78125 C 17.070312 -11.78125 15.648438 -11.71875 14.484375 -11.59375 C 13.328125 -11.46875 12.382812 -11.269531 11.65625 -11 C 10.925781 -10.738281 10.390625 -10.375 10.046875 -9.90625 C 9.703125 -9.445312 9.53125 -8.878906 9.53125 -8.203125 C 9.53125 -6.984375 9.957031 -6.035156 10.8125 -5.359375 C 11.675781 -4.679688 12.859375 -4.34375 14.359375 -4.34375 C 15.578125 -4.34375 16.664062 -4.625 17.625 -5.1875 C 18.59375 -5.757812 19.367188 -6.535156 19.953125 -7.515625 C 20.546875 -8.503906 20.84375 -9.609375 20.84375 -10.828125 L 20.84375 -16.828125 C 20.84375 -18.609375 20.382812 -19.875 19.46875 -20.625 C 18.5625 -21.375 17.109375 -21.75 15.109375 -21.75 C 13.640625 -21.75 12.128906 -21.535156 10.578125 -21.109375 C 9.023438 -20.679688 7.425781 -19.984375 5.78125 -19.015625 L 3.859375 -23.78125 C 4.890625 -24.46875 6.066406 -25.039062 7.390625 -25.5 C 8.710938 -25.96875 10.097656 -26.332031 11.546875 -26.59375 C 12.992188 -26.863281 14.394531 -27 15.75 -27 C 18.289062 -27 20.4375 -26.601562 22.1875 -25.8125 C 23.9375 -25.03125 25.253906 -23.835938 26.140625 -22.234375 C 27.035156 -20.628906 27.484375 -18.539062 27.484375 -15.96875 L 27.484375 0 L 21.328125 0 L 21.328125 -5.515625 L 21.484375 -5.515625 C 21.128906 -4.335938 20.546875 -3.289062 19.734375 -2.375 C 18.929688 -1.46875 17.953125 -0.753906 16.796875 -0.234375 C 15.640625 0.273438 14.3125 0.53125 12.8125 0.53125 Z M 12.8125 0.53125 "/></g></g></g><g fill="#ffffff" fill-opacity="1"><g transform="translate(85.066576, 64.126882)"><g><path d="M 3.796875 0 L 3.796875 -26.46875 L 10.28125 -26.46875 L 10.28125 -20.03125 L 10.078125 -20.03125 C 10.609375 -22.101562 11.613281 -23.726562 13.09375 -24.90625 C 14.582031 -26.09375 16.503906 -26.753906 18.859375 -26.890625 L 21.375 -27.109375 L 21.859375 -21 L 17.515625 -20.625 C 15.335938 -20.414062 13.675781 -19.71875 12.53125 -18.53125 C 11.394531 -17.351562 10.828125 -15.785156 10.828125 -13.828125 L 10.828125 0 Z M 3.796875 0 "/></g></g></g><g fill="#ffffff" fill-opacity="1"><g transform="translate(107.564475, 64.126882)"><g><path d="M 13.015625 0.53125 C 9.941406 0.53125 7.632812 -0.296875 6.09375 -1.953125 C 4.5625 -3.617188 3.796875 -6.039062 3.796875 -9.21875 L 3.796875 -37.765625 L 10.765625 -37.765625 L 10.765625 -9.640625 C 10.765625 -8.640625 10.90625 -7.800781 11.1875 -7.125 C 11.476562 -6.445312 11.910156 -5.925781 12.484375 -5.5625 C 13.054688 -5.207031 13.753906 -5.03125 14.578125 -5.03125 C 15.035156 -5.03125 15.476562 -5.054688 15.90625 -5.109375 C 16.34375 -5.171875 16.773438 -5.253906 17.203125 -5.359375 L 17.3125 -0.046875 C 16.59375 0.128906 15.894531 0.269531 15.21875 0.375 C 14.539062 0.476562 13.804688 0.53125 13.015625 0.53125 Z M 13.015625 0.53125 "/></g></g></g><g fill="#ffffff" fill-opacity="1"><g transform="translate(125.455664, 64.126882)"><g><path d="M 16.078125 0.53125 C 13.285156 0.53125 10.863281 -0.03125 8.8125 -1.15625 C 6.757812 -2.28125 5.171875 -3.878906 4.046875 -5.953125 C 2.921875 -8.023438 2.359375 -10.453125 2.359375 -13.234375 C 2.359375 -16.054688 2.921875 -18.492188 4.046875 -20.546875 C 5.171875 -22.597656 6.757812 -24.1875 8.8125 -25.3125 C 10.863281 -26.4375 13.285156 -27 16.078125 -27 C 18.898438 -27 21.328125 -26.4375 23.359375 -25.3125 C 25.390625 -24.1875 26.96875 -22.585938 28.09375 -20.515625 C 29.226562 -18.441406 29.796875 -16.015625 29.796875 -13.234375 C 29.796875 -10.453125 29.226562 -8.023438 28.09375 -5.953125 C 26.96875 -3.878906 25.390625 -2.28125 23.359375 -1.15625 C 21.328125 -0.03125 18.898438 0.53125 16.078125 0.53125 Z M 16.078125 -4.921875 C 18.179688 -4.921875 19.835938 -5.644531 21.046875 -7.09375 C 22.265625 -8.539062 22.875 -10.601562 22.875 -13.28125 C 22.875 -15.96875 22.265625 -18.015625 21.046875 -19.421875 C 19.835938 -20.828125 18.179688 -21.53125 16.078125 -21.53125 C 14.003906 -21.53125 12.347656 -20.828125 11.109375 -19.421875 C 9.878906 -18.015625 9.265625 -15.96875 9.265625 -13.28125 C 9.265625 -10.601562 9.878906 -8.539062 11.109375 -7.09375 C 12.347656 -5.644531 14.003906 -4.921875 16.078125 -4.921875 Z M 16.078125 -4.921875 "/></g></g></g><g fill="#ffffff" fill-opacity="1"><g transform="translate(157.595529, 64.126882)"><g><path d="M 13.875 0.53125 C 12.34375 0.53125 10.859375 0.40625 9.421875 0.15625 C 7.992188 -0.09375 6.679688 -0.429688 5.484375 -0.859375 C 4.296875 -1.285156 3.253906 -1.835938 2.359375 -2.515625 L 4.171875 -7.171875 C 5.066406 -6.609375 6.050781 -6.117188 7.125 -5.703125 C 8.195312 -5.296875 9.300781 -4.992188 10.4375 -4.796875 C 11.582031 -4.597656 12.691406 -4.5 13.765625 -4.5 C 15.628906 -4.5 17.015625 -4.753906 17.921875 -5.265625 C 18.828125 -5.785156 19.28125 -6.53125 19.28125 -7.5 C 19.28125 -8.320312 19.003906 -8.945312 18.453125 -9.375 C 17.898438 -9.800781 17.019531 -10.101562 15.8125 -10.28125 L 10.1875 -11.25 C 7.820312 -11.644531 6.03125 -12.484375 4.8125 -13.765625 C 3.601562 -15.054688 3 -16.664062 3 -18.59375 C 3 -20.269531 3.460938 -21.734375 4.390625 -22.984375 C 5.316406 -24.234375 6.65625 -25.210938 8.40625 -25.921875 C 10.15625 -26.640625 12.226562 -27 14.625 -27 C 15.914062 -27 17.191406 -26.882812 18.453125 -26.65625 C 19.722656 -26.425781 20.898438 -26.085938 21.984375 -25.640625 C 23.078125 -25.191406 24.019531 -24.628906 24.8125 -23.953125 L 22.875 -19.28125 C 22.195312 -19.851562 21.394531 -20.335938 20.46875 -20.734375 C 19.539062 -21.128906 18.578125 -21.429688 17.578125 -21.640625 C 16.578125 -21.859375 15.613281 -21.96875 14.6875 -21.96875 C 12.820312 -21.96875 11.441406 -21.691406 10.546875 -21.140625 C 9.660156 -20.585938 9.21875 -19.828125 9.21875 -18.859375 C 9.21875 -18.078125 9.472656 -17.460938 9.984375 -17.015625 C 10.503906 -16.566406 11.320312 -16.253906 12.4375 -16.078125 L 17.953125 -15.109375 C 20.484375 -14.679688 22.375 -13.867188 23.625 -12.671875 C 24.875 -11.472656 25.5 -9.859375 25.5 -7.828125 C 25.5 -6.078125 25.015625 -4.578125 24.046875 -3.328125 C 23.085938 -2.078125 21.738281 -1.117188 20 -0.453125 C 18.269531 0.203125 16.226562 0.53125 13.875 0.53125 Z M 13.875 0.53125 "/></g></g></g><g fill="#ffffff" fill-opacity="1"><g transform="translate(185.182245, 64.126882)"><g/></g></g><g fill="#ffffff" fill-opacity="1"><g transform="translate(200.287983, 64.126882)"><g><path d="M 22.015625 0.53125 C 18.160156 0.53125 14.832031 -0.25 12.03125 -1.8125 C 9.226562 -3.382812 7.066406 -5.625 5.546875 -8.53125 C 4.023438 -11.445312 3.265625 -14.90625 3.265625 -18.90625 C 3.265625 -22.90625 4.023438 -26.351562 5.546875 -29.25 C 7.066406 -32.144531 9.21875 -34.378906 12 -35.953125 C 14.789062 -37.523438 18.128906 -38.3125 22.015625 -38.3125 C 24.585938 -38.3125 26.988281 -37.9375 29.21875 -37.1875 C 31.457031 -36.4375 33.328125 -35.328125 34.828125 -33.859375 L 32.46875 -28.296875 C 30.863281 -29.648438 29.238281 -30.617188 27.59375 -31.203125 C 25.945312 -31.796875 24.160156 -32.09375 22.234375 -32.09375 C 18.554688 -32.09375 15.707031 -30.957031 13.6875 -28.6875 C 11.664062 -26.414062 10.65625 -23.15625 10.65625 -18.90625 C 10.65625 -14.65625 11.65625 -11.382812 13.65625 -9.09375 C 15.65625 -6.8125 18.515625 -5.671875 22.234375 -5.671875 C 24.160156 -5.671875 25.945312 -5.96875 27.59375 -6.5625 C 29.238281 -7.15625 30.863281 -8.128906 32.46875 -9.484375 L 34.828125 -3.90625 C 33.328125 -2.476562 31.457031 -1.378906 29.21875 -0.609375 C 26.988281 0.148438 24.585938 0.53125 22.015625 0.53125 Z M 22.015625 0.53125 "/></g></g></g><g fill="#ffffff" fill-opacity="1"><g transform="translate(237.516666, 64.126882)"><g><path d="M 16.078125 0.53125 C 13.285156 0.53125 10.863281 -0.03125 8.8125 -1.15625 C 6.757812 -2.28125 5.171875 -3.878906 4.046875 -5.953125 C 2.921875 -8.023438 2.359375 -10.453125 2.359375 -13.234375 C 2.359375 -16.054688 2.921875 -18.492188 4.046875 -20.546875 C 5.171875 -22.597656 6.757812 -24.1875 8.8125 -25.3125 C 10.863281 -26.4375 13.285156 -27 16.078125 -27 C 18.898438 -27 21.328125 -26.4375 23.359375 -25.3125 C 25.390625 -24.1875 26.96875 -22.585938 28.09375 -20.515625 C 29.226562 -18.441406 29.796875 -16.015625 29.796875 -13.234375 C 29.796875 -10.453125 29.226562 -8.023438 28.09375 -5.953125 C 26.96875 -3.878906 25.390625 -2.28125 23.359375 -1.15625 C 21.328125 -0.03125 18.898438 0.53125 16.078125 0.53125 Z M 16.078125 -4.921875 C 18.179688 -4.921875 19.835938 -5.644531 21.046875 -7.09375 C 22.265625 -8.539062 22.875 -10.601562 22.875 -13.28125 C 22.875 -15.96875 22.265625 -18.015625 21.046875 -19.421875 C 19.835938 -20.828125 18.179688 -21.53125 16.078125 -21.53125 C 14.003906 -21.53125 12.347656 -20.828125 11.109375 -19.421875 C 9.878906 -18.015625 9.265625 -15.96875 9.265625 -13.28125 C 9.265625 -10.601562 9.878906 -8.539062 11.109375 -7.09375 C 12.347656 -5.644531 14.003906 -4.921875 16.078125 -4.921875 Z M 16.078125 -4.921875 "/></g></g></g><g fill="#ffffff" fill-opacity="1"><g transform="translate(269.656531, 64.126882)"><g><path d="M 3.796875 0 L 3.796875 -26.46875 L 10.28125 -26.46875 L 10.28125 -20.03125 L 10.078125 -20.03125 C 10.609375 -22.101562 11.613281 -23.726562 13.09375 -24.90625 C 14.582031 -26.09375 16.503906 -26.753906 18.859375 -26.890625 L 21.375 -27.109375 L 21.859375 -21 L 17.515625 -20.625 C 15.335938 -20.414062 13.675781 -19.71875 12.53125 -18.53125 C 11.394531 -17.351562 10.828125 -15.785156 10.828125 -13.828125 L 10.828125 0 Z M 3.796875 0 "/></g></g></g><g fill="#ffffff" fill-opacity="1"><g transform="translate(292.154429, 64.126882)"><g><path d="M 3.796875 0 L 3.796875 -26.46875 L 10.28125 -26.46875 L 10.28125 -20.03125 L 10.078125 -20.03125 C 10.609375 -22.101562 11.613281 -23.726562 13.09375 -24.90625 C 14.582031 -26.09375 16.503906 -26.753906 18.859375 -26.890625 L 21.375 -27.109375 L 21.859375 -21 L 17.515625 -20.625 C 15.335938 -20.414062 13.675781 -19.71875 12.53125 -18.53125 C 11.394531 -17.351562 10.828125 -15.785156 10.828125 -13.828125 L 10.828125 0 Z M 3.796875 0 "/></g></g></g><g fill="#ffffff" fill-opacity="1"><g transform="translate(314.652327, 64.126882)"><g><path d="M 12.8125 0.53125 C 10.875 0.53125 9.144531 0.164062 7.625 -0.5625 C 6.113281 -1.289062 4.921875 -2.289062 4.046875 -3.5625 C 3.171875 -4.832031 2.734375 -6.253906 2.734375 -7.828125 C 2.734375 -9.785156 3.269531 -11.34375 4.34375 -12.5 C 5.414062 -13.664062 7.109375 -14.515625 9.421875 -15.046875 C 11.742188 -15.585938 14.78125 -15.859375 18.53125 -15.859375 L 21.703125 -15.859375 L 21.703125 -11.78125 L 18.75 -11.78125 C 17.070312 -11.78125 15.648438 -11.71875 14.484375 -11.59375 C 13.328125 -11.46875 12.382812 -11.269531 11.65625 -11 C 10.925781 -10.738281 10.390625 -10.375 10.046875 -9.90625 C 9.703125 -9.445312 9.53125 -8.878906 9.53125 -8.203125 C 9.53125 -6.984375 9.957031 -6.035156 10.8125 -5.359375 C 11.675781 -4.679688 12.859375 -4.34375 14.359375 -4.34375 C 15.578125 -4.34375 16.664062 -4.625 17.625 -5.1875 C 18.59375 -5.757812 19.367188 -6.535156 19.953125 -7.515625 C 20.546875 -8.503906 20.84375 -9.609375 20.84375 -10.828125 L 20.84375 -16.828125 C 20.84375 -18.609375 20.382812 -19.875 19.46875 -20.625 C 18.5625 -21.375 17.109375 -21.75 15.109375 -21.75 C 13.640625 -21.75 12.128906 -21.535156 10.578125 -21.109375 C 9.023438 -20.679688 7.425781 -19.984375 5.78125 -19.015625 L 3.859375 -23.78125 C 4.890625 -24.46875 6.066406 -25.039062 7.390625 -25.5 C 8.710938 -25.96875 10.097656 -26.332031 11.546875 -26.59375 C 12.992188 -26.863281 14.394531 -27 15.75 -27 C 18.289062 -27 20.4375 -26.601562 22.1875 -25.8125 C 23.9375 -25.03125 25.253906 -23.835938 26.140625 -22.234375 C 27.035156 -20.628906 27.484375 -18.539062 27.484375 -15.96875 L 27.484375 0 L 21.328125 0 L 21.328125 -5.515625 L 21.484375 -5.515625 C 21.128906 -4.335938 20.546875 -3.289062 19.734375 -2.375 C 18.929688 -1.46875 17.953125 -0.753906 16.796875 -0.234375 C 15.640625 0.273438 14.3125 0.53125 12.8125 0.53125 Z M 12.8125 0.53125 "/></g></g></g><g fill="#ffffff" fill-opacity="1"><g transform="translate(345.827998, 64.126882)"><g><path d="M 13.015625 0.53125 C 9.941406 0.53125 7.632812 -0.296875 6.09375 -1.953125 C 4.5625 -3.617188 3.796875 -6.039062 3.796875 -9.21875 L 3.796875 -37.765625 L 10.765625 -37.765625 L 10.765625 -9.640625 C 10.765625 -8.640625 10.90625 -7.800781 11.1875 -7.125 C 11.476562 -6.445312 11.910156 -5.925781 12.484375 -5.5625 C 13.054688 -5.207031 13.753906 -5.03125 14.578125 -5.03125 C 15.035156 -5.03125 15.476562 -5.054688 15.90625 -5.109375 C 16.34375 -5.171875 16.773438 -5.253906 17.203125 -5.359375 L 17.3125 -0.046875 C 16.59375 0.128906 15.894531 0.269531 15.21875 0.375 C 14.539062 0.476562 13.804688 0.53125 13.015625 0.53125 Z M 13.015625 0.53125 "/></g></g></g></svg>