<svg xmlns="http://www.w3.org/2000/svg" xmlns:xlink="http://www.w3.org/1999/xlink" width="574" zoomAndPan="magnify" viewBox="0 0 430.5 220.499993" height="294" preserveAspectRatio="xMidYMid meet" version="1.0"><defs><g/></defs><g fill="#ede9de" fill-opacity="1"><g transform="translate(33.186416, 143.960723)"><g><path d="M 27.09375 -96.28125 C 34.613281 -96.28125 39.976562 -94.515625 43.1875 -90.984375 C 46.394531 -87.453125 48 -82.113281 48 -74.96875 L 48 -70.421875 C 48 -65.285156 47.171875 -61.132812 45.515625 -57.96875 C 43.867188 -54.8125 40.9375 -52.59375 36.71875 -51.3125 C 41.394531 -50.019531 44.71875 -47.585938 46.6875 -44.015625 C 48.664062 -40.441406 49.65625 -35.992188 49.65625 -30.671875 L 49.65625 -22.5625 C 49.65625 -15.3125 47.863281 -9.738281 44.28125 -5.84375 C 40.707031 -1.945312 35.160156 0 27.640625 0 L 5.5 0 L 5.5 -96.28125 Z M 24.484375 -55.4375 C 28.796875 -55.4375 32.023438 -56.304688 34.171875 -58.046875 C 36.328125 -59.785156 37.40625 -63.175781 37.40625 -68.21875 L 37.40625 -73.859375 C 37.40625 -78.171875 36.601562 -81.359375 35 -83.421875 C 33.394531 -85.484375 30.671875 -86.515625 26.828125 -86.515625 L 16.234375 -86.515625 L 16.234375 -55.4375 Z M 27.640625 -9.765625 C 35.253906 -9.765625 39.0625 -14.117188 39.0625 -22.828125 L 39.0625 -31.359375 C 39.0625 -36.765625 37.984375 -40.5 35.828125 -42.5625 C 33.671875 -44.632812 30.253906 -45.671875 25.578125 -45.671875 L 16.234375 -45.671875 L 16.234375 -9.765625 Z M 27.640625 -9.765625 "/></g></g></g><g fill="#ede9de" fill-opacity="1"><g transform="translate(87.10506, 143.960723)"><g><path d="M 16.234375 -96.28125 L 16.234375 0 L 5.5 0 L 5.5 -96.28125 Z M 16.234375 -96.28125 "/></g></g></g><g fill="#ede9de" fill-opacity="1"><g transform="translate(108.83757, 143.960723)"><g><path d="M 40.984375 -0.140625 L 30.671875 -0.140625 L 14.71875 -76.75 L 14.71875 0 L 5.359375 0 L 5.359375 -96.28125 L 20.359375 -96.28125 L 36.171875 -19.390625 L 51.4375 -96.28125 L 66.4375 -96.28125 L 66.4375 0 L 56.25 0 L 56.25 -77.4375 Z M 40.984375 -0.140625 "/></g></g></g><g fill="#ede9de" fill-opacity="1"><g transform="translate(180.774944, 143.960723)"><g><path d="M 27.09375 -96.28125 C 34.613281 -96.28125 39.976562 -94.515625 43.1875 -90.984375 C 46.394531 -87.453125 48 -82.113281 48 -74.96875 L 48 -70.421875 C 48 -65.285156 47.171875 -61.132812 45.515625 -57.96875 C 43.867188 -54.8125 40.9375 -52.59375 36.71875 -51.3125 C 41.394531 -50.019531 44.71875 -47.585938 46.6875 -44.015625 C 48.664062 -40.441406 49.65625 -35.992188 49.65625 -30.671875 L 49.65625 -22.5625 C 49.65625 -15.3125 47.863281 -9.738281 44.28125 -5.84375 C 40.707031 -1.945312 35.160156 0 27.640625 0 L 5.5 0 L 5.5 -96.28125 Z M 24.484375 -55.4375 C 28.796875 -55.4375 32.023438 -56.304688 34.171875 -58.046875 C 36.328125 -59.785156 37.40625 -63.175781 37.40625 -68.21875 L 37.40625 -73.859375 C 37.40625 -78.171875 36.601562 -81.359375 35 -83.421875 C 33.394531 -85.484375 30.671875 -86.515625 26.828125 -86.515625 L 16.234375 -86.515625 L 16.234375 -55.4375 Z M 27.640625 -9.765625 C 35.253906 -9.765625 39.0625 -14.117188 39.0625 -22.828125 L 39.0625 -31.359375 C 39.0625 -36.765625 37.984375 -40.5 35.828125 -42.5625 C 33.671875 -44.632812 30.253906 -45.671875 25.578125 -45.671875 L 16.234375 -45.671875 L 16.234375 -9.765625 Z M 27.640625 -9.765625 "/></g></g></g><g fill="#ede9de" fill-opacity="1"><g transform="translate(234.693588, 143.960723)"><g><path d="M 16.375 -19.390625 L 12.65625 0 L 2.75 0 L 21.1875 -96.28125 L 36.71875 -96.28125 L 55.15625 0 L 44.421875 0 L 40.71875 -19.390625 Z M 17.75 -28.609375 L 39.203125 -28.609375 L 28.328125 -84.171875 Z M 17.75 -28.609375 "/></g></g></g><g fill="#ede9de" fill-opacity="1"><g transform="translate(292.738667, 143.960723)"><g><path d="M 26.953125 -96.28125 C 34.566406 -96.28125 40.046875 -94.398438 43.390625 -90.640625 C 46.742188 -86.878906 48.421875 -81.425781 48.421875 -74.28125 L 48.421875 -66.4375 C 48.421875 -61.113281 47.457031 -56.800781 45.53125 -53.5 C 43.601562 -50.195312 40.578125 -47.90625 36.453125 -46.625 C 40.847656 -45.34375 43.960938 -42.984375 45.796875 -39.546875 C 47.628906 -36.109375 48.546875 -31.773438 48.546875 -26.546875 L 48.546875 -11.546875 C 48.546875 -9.441406 48.640625 -7.398438 48.828125 -5.421875 C 49.015625 -3.453125 49.566406 -1.644531 50.484375 0 L 39.609375 0 C 38.972656 -1.375 38.515625 -2.863281 38.234375 -4.46875 C 37.960938 -6.070312 37.828125 -8.476562 37.828125 -11.6875 L 37.828125 -26.828125 C 37.828125 -32.234375 36.609375 -35.96875 34.171875 -38.03125 C 31.742188 -40.09375 28.285156 -41.125 23.796875 -41.125 L 16.234375 -41.125 L 16.234375 0 L 5.5 0 L 5.5 -96.28125 Z M 24.203125 -50.890625 C 28.515625 -50.890625 31.863281 -51.78125 34.25 -53.5625 C 36.632812 -55.351562 37.828125 -58.863281 37.828125 -64.09375 L 37.828125 -73.3125 C 37.828125 -77.71875 36.976562 -81.019531 35.28125 -83.21875 C 33.582031 -85.414062 30.71875 -86.515625 26.6875 -86.515625 L 16.234375 -86.515625 L 16.234375 -50.890625 Z M 24.203125 -50.890625 "/></g></g></g><g fill="#ede9de" fill-opacity="1"><g transform="translate(346.93241, 143.960723)"><g><path d="M 39.75 -53.640625 L 39.75 -44.015625 L 16.234375 -44.015625 L 16.234375 -9.765625 L 45.109375 -9.765625 L 45.109375 0 L 5.5 0 L 5.5 -96.28125 L 45.109375 -96.28125 L 45.109375 -86.515625 L 16.234375 -86.515625 L 16.234375 -53.640625 Z M 39.75 -53.640625 "/></g></g></g><g fill="#ede9de" fill-opacity="1"><g transform="translate(33.186416, 143.960723)"><g><path d="M 27.09375 -96.28125 C 34.613281 -96.28125 39.976562 -94.515625 43.1875 -90.984375 C 46.394531 -87.453125 48 -82.113281 48 -74.96875 L 48 -70.421875 C 48 -65.285156 47.171875 -61.132812 45.515625 -57.96875 C 43.867188 -54.8125 40.9375 -52.59375 36.71875 -51.3125 C 41.394531 -50.019531 44.71875 -47.585938 46.6875 -44.015625 C 48.664062 -40.441406 49.65625 -35.992188 49.65625 -30.671875 L 49.65625 -22.5625 C 49.65625 -15.3125 47.863281 -9.738281 44.28125 -5.84375 C 40.707031 -1.945312 35.160156 0 27.640625 0 L 5.5 0 L 5.5 -96.28125 Z M 24.484375 -55.4375 C 28.796875 -55.4375 32.023438 -56.304688 34.171875 -58.046875 C 36.328125 -59.785156 37.40625 -63.175781 37.40625 -68.21875 L 37.40625 -73.859375 C 37.40625 -78.171875 36.601562 -81.359375 35 -83.421875 C 33.394531 -85.484375 30.671875 -86.515625 26.828125 -86.515625 L 16.234375 -86.515625 L 16.234375 -55.4375 Z M 27.640625 -9.765625 C 35.253906 -9.765625 39.0625 -14.117188 39.0625 -22.828125 L 39.0625 -31.359375 C 39.0625 -36.765625 37.984375 -40.5 35.828125 -42.5625 C 33.671875 -44.632812 30.253906 -45.671875 25.578125 -45.671875 L 16.234375 -45.671875 L 16.234375 -9.765625 Z M 27.640625 -9.765625 "/></g></g></g><g fill="#ede9de" fill-opacity="1"><g transform="translate(87.10506, 143.960723)"><g><path d="M 16.234375 -96.28125 L 16.234375 0 L 5.5 0 L 5.5 -96.28125 Z M 16.234375 -96.28125 "/></g></g></g><g fill="#ede9de" fill-opacity="1"><g transform="translate(108.83757, 143.960723)"><g><path d="M 40.984375 -0.140625 L 30.671875 -0.140625 L 14.71875 -76.75 L 14.71875 0 L 5.359375 0 L 5.359375 -96.28125 L 20.359375 -96.28125 L 36.171875 -19.390625 L 51.4375 -96.28125 L 66.4375 -96.28125 L 66.4375 0 L 56.25 0 L 56.25 -77.4375 Z M 40.984375 -0.140625 "/></g></g></g><g fill="#ede9de" fill-opacity="1"><g transform="translate(180.774944, 143.960723)"><g><path d="M 27.09375 -96.28125 C 34.613281 -96.28125 39.976562 -94.515625 43.1875 -90.984375 C 46.394531 -87.453125 48 -82.113281 48 -74.96875 L 48 -70.421875 C 48 -65.285156 47.171875 -61.132812 45.515625 -57.96875 C 43.867188 -54.8125 40.9375 -52.59375 36.71875 -51.3125 C 41.394531 -50.019531 44.71875 -47.585938 46.6875 -44.015625 C 48.664062 -40.441406 49.65625 -35.992188 49.65625 -30.671875 L 49.65625 -22.5625 C 49.65625 -15.3125 47.863281 -9.738281 44.28125 -5.84375 C 40.707031 -1.945312 35.160156 0 27.640625 0 L 5.5 0 L 5.5 -96.28125 Z M 24.484375 -55.4375 C 28.796875 -55.4375 32.023438 -56.304688 34.171875 -58.046875 C 36.328125 -59.785156 37.40625 -63.175781 37.40625 -68.21875 L 37.40625 -73.859375 C 37.40625 -78.171875 36.601562 -81.359375 35 -83.421875 C 33.394531 -85.484375 30.671875 -86.515625 26.828125 -86.515625 L 16.234375 -86.515625 L 16.234375 -55.4375 Z M 27.640625 -9.765625 C 35.253906 -9.765625 39.0625 -14.117188 39.0625 -22.828125 L 39.0625 -31.359375 C 39.0625 -36.765625 37.984375 -40.5 35.828125 -42.5625 C 33.671875 -44.632812 30.253906 -45.671875 25.578125 -45.671875 L 16.234375 -45.671875 L 16.234375 -9.765625 Z M 27.640625 -9.765625 "/></g></g></g><g fill="#ede9de" fill-opacity="1"><g transform="translate(234.693588, 143.960723)"><g><path d="M 16.375 -19.390625 L 12.65625 0 L 2.75 0 L 21.1875 -96.28125 L 36.71875 -96.28125 L 55.15625 0 L 44.421875 0 L 40.71875 -19.390625 Z M 17.75 -28.609375 L 39.203125 -28.609375 L 28.328125 -84.171875 Z M 17.75 -28.609375 "/></g></g></g><g fill="#ede9de" fill-opacity="1"><g transform="translate(292.738667, 143.960723)"><g><path d="M 26.953125 -96.28125 C 34.566406 -96.28125 40.046875 -94.398438 43.390625 -90.640625 C 46.742188 -86.878906 48.421875 -81.425781 48.421875 -74.28125 L 48.421875 -66.4375 C 48.421875 -61.113281 47.457031 -56.800781 45.53125 -53.5 C 43.601562 -50.195312 40.578125 -47.90625 36.453125 -46.625 C 40.847656 -45.34375 43.960938 -42.984375 45.796875 -39.546875 C 47.628906 -36.109375 48.546875 -31.773438 48.546875 -26.546875 L 48.546875 -11.546875 C 48.546875 -9.441406 48.640625 -7.398438 48.828125 -5.421875 C 49.015625 -3.453125 49.566406 -1.644531 50.484375 0 L 39.609375 0 C 38.972656 -1.375 38.515625 -2.863281 38.234375 -4.46875 C 37.960938 -6.070312 37.828125 -8.476562 37.828125 -11.6875 L 37.828125 -26.828125 C 37.828125 -32.234375 36.609375 -35.96875 34.171875 -38.03125 C 31.742188 -40.09375 28.285156 -41.125 23.796875 -41.125 L 16.234375 -41.125 L 16.234375 0 L 5.5 0 L 5.5 -96.28125 Z M 24.203125 -50.890625 C 28.515625 -50.890625 31.863281 -51.78125 34.25 -53.5625 C 36.632812 -55.351562 37.828125 -58.863281 37.828125 -64.09375 L 37.828125 -73.3125 C 37.828125 -77.71875 36.976562 -81.019531 35.28125 -83.21875 C 33.582031 -85.414062 30.71875 -86.515625 26.6875 -86.515625 L 16.234375 -86.515625 L 16.234375 -50.890625 Z M 24.203125 -50.890625 "/></g></g></g><g fill="#ede9de" fill-opacity="1"><g transform="translate(346.932409, 143.960723)"><g><path d="M 39.75 -53.640625 L 39.75 -44.015625 L 16.234375 -44.015625 L 16.234375 -9.765625 L 45.109375 -9.765625 L 45.109375 0 L 5.5 0 L 5.5 -96.28125 L 45.109375 -96.28125 L 45.109375 -86.515625 L 16.234375 -86.515625 L 16.234375 -53.640625 Z M 39.75 -53.640625 "/></g></g></g></svg>