<svg xmlns="http://www.w3.org/2000/svg" xmlns:xlink="http://www.w3.org/1999/xlink" id="Capa_1" x="0px" y="0px" viewBox="0 0 274.25 19.579" xml:space="preserve">
<g>
	<path fill="#ECE5DD" stroke="#ECE5DD" stroke-width="0.25" stroke-miterlimit="10" d="M9.74,9.528   c1.445-0.841,2.365-2.445,2.365-3.862c0-2.102-1.498-4.624-5.675-4.624H0.125v17.943h7.041c4.466,0,5.7-2.864,5.7-4.939   C12.866,11.996,11.684,10.263,9.74,9.528z M2.147,2.171h4.021c2.625,0,3.86,1.602,3.86,3.52c0,1.92-1.235,3.468-3.86,3.468H2.147   V2.171z M6.956,17.855H2.147v-7.567h4.809c3.099,0,3.834,2.128,3.834,3.757C10.79,15.412,10.055,17.855,6.956,17.855z"></path>
	<path fill="#ECE5DD" stroke="#ECE5DD" stroke-width="0.25" stroke-miterlimit="10" d="M23.691,18.986h1.551l2.811-6.358h7.723   l2.915,6.358h2.234l-8.616-18.55L23.691,18.986z M28.552,11.498l3.309-7.461l3.417,7.461H28.552z"></path>
	<path fill="#ECE5DD" stroke="#ECE5DD" stroke-width="0.25" stroke-miterlimit="10" d="M64.914,6.321c0-2.968-2.654-5.28-6.331-5.28   h-5.832v17.943h2.022V2.171h3.624c2.26,0,4.362,1.314,4.362,4.151s-2.102,4.151-4.362,4.151h-2.706l7.778,8.512h2.706l-7.121-7.697   C62.366,11.287,64.914,9.106,64.914,6.321z"></path>
	<path fill="#ECE5DD" stroke="#ECE5DD" stroke-width="0.25" stroke-miterlimit="10" d="M87.955,9.528   c1.446-0.841,2.366-2.445,2.366-3.862c0-2.102-1.498-4.624-5.676-4.624H78.34v17.943h7.041c4.466,0,5.701-2.864,5.701-4.939   C91.082,11.996,89.9,10.263,87.955,9.528z M80.363,2.171h4.02c2.626,0,3.86,1.602,3.86,3.52c0,1.92-1.234,3.468-3.86,3.468h-4.02   V2.171z M85.171,17.855h-4.808v-7.567h4.808c3.1,0,3.835,2.128,3.835,3.757C89.006,15.412,88.271,17.855,85.171,17.855z"></path>
	<path fill="#ECE5DD" stroke="#ECE5DD" stroke-width="0.25" stroke-miterlimit="10" d="M101.909,18.986h1.548l2.812-6.358h7.724   l2.916,6.358h2.233l-8.618-18.549L101.909,18.986z M106.769,11.498l3.31-7.461l3.417,7.461H106.769z"></path>
	<path fill="#ECE5DD" stroke="#ECE5DD" stroke-width="0.25" stroke-miterlimit="10" d="M143.131,6.321   c0-2.968-2.654-5.28-6.332-5.28h-5.833v17.943h2.024V2.171h3.625c2.258,0,4.36,1.314,4.36,4.151s-2.101,4.151-4.36,4.151h-2.707   l7.777,8.512h2.706l-7.119-7.697C140.581,11.287,143.131,9.106,143.131,6.321z"></path>
	<path fill="#ECE5DD" stroke="#ECE5DD" stroke-width="0.25" stroke-miterlimit="10" d="M154.244,18.986h1.55l2.811-6.358h7.723   l2.916,6.358h2.233l-8.616-18.549L154.244,18.986z M159.105,11.498l3.309-7.461l3.417,7.461H159.105z"></path>
	<path fill="#ECE5DD" stroke="#ECE5DD" stroke-width="0.25" stroke-miterlimit="10" d="M191.553,11.234l6.476-0.052   c-0.213,3.53-2.797,6.23-6.057,6.23c-3.671,0-6.547-3.325-6.547-7.571c0-4.289,2.876-7.649,6.547-7.649   c1.903,0,3.844,1.138,5.324,3.122l0.294,0.395l2.109-1.742l-0.3-0.362c-1.842-2.227-4.48-3.453-7.428-3.453   c-5.329,0-9.665,4.335-9.665,9.664c0,5.314,4.335,9.637,9.665,9.637c5.239,0,9.19-4.11,9.19-9.559V9.112l-9.609-0.057   L191.553,11.234L191.553,11.234z"></path>
	<polygon fill="#ECE5DD" stroke="#ECE5DD" stroke-width="0.25" stroke-miterlimit="10" points="213.441,19.244 224.94,19.244    224.94,17.01 216.404,17.167 216.404,10.735 224.598,10.788 224.598,8.609 216.404,8.662 216.404,2.439 224.94,2.596 224.94,0.362    213.441,0.362  "></polygon>
	<polygon fill="#ECE5DD" stroke="#ECE5DD" stroke-width="0.25" stroke-miterlimit="10" points="237.876,19.244 249.375,19.244    249.375,17.01 240.837,17.167 240.837,10.735 249.032,10.788 249.032,8.609 240.837,8.662 240.837,2.439 249.375,2.596    249.375,0.362 237.876,0.362  "></polygon>
	<path fill="#ECE5DD" stroke="#ECE5DD" stroke-width="0.25" stroke-miterlimit="10" d="M268.303,7.863   c-2.915-0.722-3.899-1.43-3.899-2.802c0-1.593,1.432-2.84,3.262-2.84c1.623,0,3.331,1.354,3.584,2.84l0.086,0.505l2.636-0.69   l-0.094-0.438c-0.443-2.077-2.552-4.313-6.134-4.313c-3.474,0-6.196,2.411-6.196,5.488c0,2.705,1.649,4.24,5.51,5.131   c3.507,0.836,4.212,1.883,4.212,3.301c0,1.873-1.629,3.341-3.709,3.341c-2.016,0-3.934-1.678-4.024-3.52l-0.029-0.586l-2.674,0.741   l0.062,0.411c0.365,2.419,2.581,5.022,6.587,5.022c3.787,0,6.643-2.517,6.643-5.855C274.125,10.586,272.383,8.871,268.303,7.863z"></path>
</g>
</svg>