<?xml version="1.0" encoding="UTF-8"?>
<!DOCTYPE svg PUBLIC "-//W3C//DTD SVG 1.1//EN" "http://www.w3.org/Graphics/SVG/1.1/DTD/svg11.dtd">
<!-- Creator: CorelDRAW 2019 (64-Bit) -->
<svg xmlns="http://www.w3.org/2000/svg" xml:space="preserve" width="1167px" height="199px" version="1.1" style="shape-rendering:geometricPrecision; text-rendering:geometricPrecision; image-rendering:optimizeQuality; fill-rule:evenodd; clip-rule:evenodd"
viewBox="0 0 1135.95 194.01"
 xmlns:xlink="http://www.w3.org/1999/xlink">
 <defs>
  <style type="text/css">
   <![CDATA[
    .fil0 {fill:#FEFEFE}
   ]]>
  </style>
 </defs>
 <g id="Capa_x0020_1">
  <metadata id="CorelCorpID_0Corel-Layer"/>
  <g id="_1381798762560">
   <g>
    <path class="fil0" d="M271.74 64.18c19.39,0 32.1,6.26 38.56,18.55 1.46,3.13 2.5,6.46 3.12,10.21l2.71 23.97c1.25,13.13 3.96,21.04 8.13,24.17 1.67,1.25 3.54,1.88 5.83,2.29l-25.42 0c-7.29,-0.2 -12.09,-2.91 -14.38,-8.54 -4.79,5.42 -11.67,8.54 -20.42,9.38 -1.67,0.21 -3.34,0.41 -4.79,0.41 -11.46,0 -19.59,-3.12 -24.39,-9.58 -2.29,-3.13 -3.54,-6.67 -3.54,-10.84 0,-8.75 4.79,-15.21 14.59,-19.17 1.25,-0.42 6.88,-2.29 16.88,-5.21 7.71,-2.29 12.5,-5.21 14.38,-8.34 1.25,-2.5 1.25,-6.67 0.21,-12.5 -1.67,-6.67 -5.42,-10 -11.05,-10.21 -7.29,0 -12.5,5.42 -15.63,16.05 -1.04,3.54 -1.67,7.29 -1.87,10.83 -8.76,-2.29 -13.76,-6.25 -14.8,-11.88 -1.04,-5.21 1.67,-9.58 7.92,-13.54 5.83,-3.96 13.96,-5.84 23.96,-6.05zm13.55 31.26c-2.5,3.34 -6.67,7.51 -12.5,12.3 -4.59,3.75 -7.3,7.29 -8.13,11.04 -0.42,1.67 -0.63,3.55 -0.63,5.63 0,5.83 2.71,9.59 8.13,11.04 4.38,1.25 8.55,0.84 12.09,-1.66 3.33,-2.3 4.79,-5.21 4.37,-9.17l-3.33 -29.18z"/>
    <path class="fil0" d="M363.85 26.88l0 90.03c0,13.13 1.88,21.04 5.84,24.17 1.46,1.25 3.33,1.88 5.62,2.29l-50.43 0c5.01,-0.83 8.34,-4.16 9.8,-9.79 0.83,-3.75 1.46,-9.38 1.46,-16.67l0 -49.6c0,-13.13 -1.88,-21.05 -5.63,-24.38 -1.67,-1.25 -3.54,-1.88 -5.63,-2.29l38.97 -13.76z"/>
    <path class="fil0" d="M415.12 64.18c9.79,0 17.92,3.13 24.17,9.17 4.17,3.96 6.05,8.34 6.05,12.92 0,10.42 -5.63,16.88 -17.09,19.8 -3.75,0.83 -12.51,1.88 -25.63,2.71 -0.84,0 -1.67,0 -2.3,0.21 4.17,10.42 10.84,17.09 20.01,20 9.79,2.71 19.17,0.42 28.13,-7.08 1.25,-0.84 2.09,-1.88 2.92,-2.71 -4.79,12.29 -13.55,20.21 -25.63,23.76 -11.46,3.33 -22.51,2.29 -32.93,-3.34 -11.04,-5.62 -17.71,-14.58 -20.21,-26.46 -0.42,-1.46 -0.63,-2.92 -0.63,-4.38 -1.25,-14.38 2.71,-25.63 12.09,-33.97 7.29,-7.08 17.71,-10.63 31.05,-10.63zm-0.42 4.38c-7.29,0 -12.5,3.54 -15.63,10.42 -2.08,4.58 -2.71,10 -2.08,16.26 0.21,2.7 0.83,5.62 1.67,9.16 11.46,-1.45 19.17,-6.25 23.55,-14.37 3.12,-6.05 3.54,-11.47 1.04,-16.26 -1.67,-3.33 -4.59,-5.21 -8.55,-5.21z"/>
    <path class="fil0" d="M487.01 64.18l0 10.01c2.09,-1.88 3.96,-3.34 5.84,-4.59 6.25,-3.54 12.92,-5.21 20.21,-5.42 10.63,0 16.26,3.13 16.67,9.38 0.42,4.79 -2.29,9.8 -7.71,14.8 -0.2,0.21 -0.41,0.42 -0.62,0.62 -10.01,-14.58 -18.97,-19.79 -26.47,-15.62 -5.42,3.33 -8.12,13.33 -8.12,30.21l0 13.13c0,13.13 1.87,21.05 5.83,24.17 1.46,1.26 3.33,1.88 5.63,2.3l-25.01 0 -25.42 0c5,-0.84 8.33,-4.17 9.79,-9.8 0.83,-3.75 1.46,-9.38 1.46,-16.67l0 -12.09c0,-13.13 -1.88,-21.05 -5.63,-24.17 -1.66,-1.25 -3.54,-1.88 -5.62,-2.29l39.17 -13.97z"/>
    <path class="fil0" d="M563.7 40.84l0 32.93 11.26 0 0 4.38 -11.26 0 0 38.55c0,13.13 1.88,21.05 5.84,24.17 1.46,1.25 3.33,1.88 5.62,2.29l-11.46 0.01 -7.92 0 -2.91 0c-9.17,0 -14.59,-5.21 -16.26,-15.63 -0.62,-3.13 -0.83,-6.67 -0.83,-10.42l0 -35.85c0,-13.13 -1.88,-21.04 -5.63,-24.38 -1.67,-1.25 -3.54,-1.87 -5.63,-2.29l39.18 -13.76z"/>
    <path class="fil0" d="M607.88 64.18c19.38,0 32.09,6.26 38.55,18.55 1.46,3.13 2.5,6.46 3.13,10.21l2.71 23.97c1.25,13.13 3.96,21.04 8.13,24.17 1.66,1.25 3.54,1.88 5.83,2.29l-25.42 0c-7.3,-0.2 -12.09,-2.91 -14.38,-8.54 -4.79,5.42 -11.67,8.54 -20.42,9.38 -1.67,0.21 -3.34,0.41 -4.8,0.41 -11.46,0 -19.59,-3.12 -24.38,-9.58 -2.29,-3.13 -3.54,-6.67 -3.54,-10.84 0,-8.75 4.79,-15.21 14.59,-19.17 1.25,-0.42 6.87,-2.29 16.88,-5.21 7.71,-2.29 12.5,-5.21 14.37,-8.34 1.25,-2.5 1.25,-6.67 0.21,-12.5 -1.67,-6.67 -5.42,-10 -11.04,-10.21 -7.3,0 -12.51,5.42 -15.63,16.05 -1.04,3.54 -1.67,7.29 -1.88,10.83 -8.75,-2.29 -13.75,-6.25 -14.79,-11.88 -1.05,-5.21 1.66,-9.58 7.92,-13.54 5.83,-3.96 13.96,-5.84 23.96,-6.05zm13.34 31.26c-2.5,3.34 -6.67,7.51 -12.5,12.3 -4.59,3.75 -7.3,7.29 -8.13,11.04 -0.42,1.67 -0.63,3.55 -0.63,5.63 0,5.83 2.71,9.59 8.13,11.04 4.38,1.25 8.55,0.84 12.09,-1.66 3.33,-2.3 4.79,-5.21 4.37,-9.17l-3.33 -29.18z"/>
    <path class="fil0" d="M782.93 26.88l0 90.03c0,13.13 1.88,21.04 5.84,24.17 1.45,1.25 3.33,1.88 5.41,2.29l-11.25 0 -14.38 0c-5,-0.2 -8.54,-2.5 -10.63,-7.08 -7.08,4.79 -15,7.29 -23.54,7.08 -11.68,-0.2 -21.47,-4.79 -28.97,-13.75 -6.46,-7.71 -9.8,-16.46 -9.59,-26.47 0.21,-11.67 4.79,-21.46 13.76,-29.17 5.62,-4.79 12.08,-7.71 19.17,-9.17 5.63,-0.83 11.46,-0.42 17.5,1.04 3.13,0.84 6.05,2.29 8.76,3.75l0 -2.5c0,-13.13 -1.88,-21.05 -5.84,-24.38 -1.46,-1.25 -3.33,-1.88 -5.42,-2.29l39.18 -13.55zm-63.14 45.85c-0.63,0.21 -1.25,0.21 -1.88,0.62 -3.54,1.88 -3.96,7.71 -0.83,17.72 1.67,5.62 4.38,11.67 7.92,17.71 6.46,11.46 13.13,19.38 20,23.55 3.34,2.08 5.84,2.5 7.92,1.67 3.75,-1.88 3.96,-7.92 0.84,-17.92 -0.84,-2.71 -1.88,-5.63 -3.13,-8.76 -2.5,-5.42 -5.42,-10.63 -9.17,-16.04 -5.21,-7.71 -10.21,-13.13 -15.21,-16.26 -2.5,-1.25 -4.59,-2.08 -6.46,-2.29z"/>
    <path class="fil0" d="M827.95 64.18l0 52.52c0,13.13 1.87,21.05 5.83,24.17 1.46,1.25 3.33,1.88 5.63,2.29l-50.64 0.01c5,-0.84 8.33,-4.17 9.79,-9.8 0.84,-3.75 1.46,-9.38 1.46,-16.67l0 -12.09c0,-13.13 -1.88,-21.05 -5.63,-24.17 -1.66,-1.25 -3.54,-1.88 -5.62,-2.29l39.18 -13.97zm-19.39 -36.88c3.34,-0.83 6.67,-0.63 10.01,0.63 3.96,1.66 6.67,4.58 8.33,8.12 1.88,4.59 1.46,9.38 -1.46,14.59 -3.33,4.58 -7.71,7.08 -13.33,7.08 -5.84,-0.2 -10.21,-2.7 -13.13,-7.71 -1.46,-2.5 -2.08,-5.21 -2.08,-8.12 0.2,-5.84 2.7,-10.42 7.71,-13.34 1.45,-0.42 2.7,-0.83 3.95,-1.25z"/>
    <path class="fil0" d="M891.3 42.93c6.25,-5.42 11.67,-6.46 16.46,-3.13 4.58,3.34 6.46,8.96 5.63,17.09 -9.59,-2.08 -17.51,-1.46 -23.76,1.67 -2.92,1.67 -5,3.96 -6.05,6.46 1.05,0.21 2.09,0.42 3.13,0.62 10.42,2.92 17.92,8.76 22.92,17.51 1.46,2.71 2.5,5.42 3.13,8.34 1.04,5.21 0.83,10.42 -0.83,15.63 -2.92,9.16 -9.17,15.83 -18.55,20.42 -5.84,2.71 -12.3,4.17 -18.96,3.96 -7.51,-0.21 -14.17,-1.88 -20.22,-5.63 -2.71,2.71 -3.33,5.21 -1.67,7.92 0.84,1.46 2.3,2.29 3.96,2.92 4.8,1.46 12.93,2.71 24.39,3.75 8.96,0.62 15.83,2.08 20.84,3.96 8.54,3.54 13.33,9.79 14.58,18.96 0.21,1.25 0.21,2.5 0.21,3.75 0,11.05 -6.04,18.76 -18.13,23.13 -6.46,2.5 -14.38,3.75 -23.55,3.75 -18.34,0 -29.8,-3.75 -34.8,-11.25 -1.25,-2.29 -2.08,-4.79 -2.08,-7.5 0.2,-5.84 3.54,-10 10,-12.09 -5.42,-2.08 -9.17,-5.83 -11.25,-11.88 -0.63,-1.87 -0.84,-3.75 -0.84,-5.62 0.21,-9.38 4.79,-17.09 13.96,-22.72 -8.54,-6.67 -12.92,-15.21 -12.71,-25.42 0,-0.21 0,-0.21 0,-0.42 0.21,-10.21 4.79,-18.54 13.55,-25.21 5.21,-3.55 10.83,-6.05 16.88,-7.3 3.96,-0.62 7.91,-0.83 11.67,-0.41 2.5,-9.17 6.67,-16.47 12.09,-21.26zm-38.35 122.12c-2.29,3.96 -2.29,8.54 0,13.54 3.54,7.5 10.63,11.26 21.26,11.26 8.75,0 15.63,-1.67 20.84,-5.01 3.75,-2.71 5,-5.83 3.96,-9.58 -1.04,-3.13 -5.63,-5.01 -13.97,-6.05 -1.66,-0.21 -5.21,-0.62 -10.21,-1.46 -10.62,-1.45 -17.92,-2.29 -21.88,-2.7zm10.01 -93.16c-0.84,0.21 -1.46,0.21 -2.09,0.63 -3.75,1.88 -4.38,7.29 -1.67,16.26 1.25,4.79 3.34,9.58 6.05,14.58 5.62,9.8 11.46,16.26 17.5,19.59 2.92,1.46 5.21,1.88 7.09,0.84 3.54,-1.88 4.17,-7.09 1.66,-15.84 -0.62,-2.29 -1.25,-4.38 -2.29,-6.67 -2.29,-5.63 -5.42,-10.84 -9.17,-15.84 -6.25,-8.33 -11.87,-12.71 -16.67,-13.33 0,-0.22 -0.21,-0.22 -0.41,-0.22z"/>
    <path class="fil0" d="M950.27 64.18l0 52.52c0,13.13 1.88,21.05 5.84,24.17 1.45,1.25 3.33,1.88 5.62,2.29l-50.43 0.01c5,-0.84 8.34,-4.17 9.8,-9.8 0.83,-3.75 1.45,-9.38 1.45,-16.67l0 -12.09c0,-13.13 -1.87,-21.05 -5.62,-24.17 -1.67,-1.25 -3.54,-1.88 -5.63,-2.29l38.97 -13.97zm-19.38 -36.88c3.34,-0.83 6.67,-0.63 10,0.63 3.96,1.66 6.67,4.58 8.34,8.12 1.88,4.59 1.46,9.38 -1.46,14.59 -3.33,4.58 -7.71,7.08 -13.34,7.08 -5.83,-0.2 -10.21,-2.7 -13.12,-7.71 -1.46,-2.5 -2.09,-5.21 -2.09,-8.12 0.21,-5.84 2.71,-10.42 7.71,-13.34 1.25,-0.42 2.5,-0.83 3.96,-1.25z"/>
    <path class="fil0" d="M988.2 40.84l0 32.93 11.25 0 0 4.38 -11.25 0 0 38.55c0,13.13 1.87,21.05 5.83,24.17 1.46,1.25 3.34,1.88 5.63,2.29l-11.25 0.01 -7.92 0 -2.92 0c-9.17,0 -14.59,-5.21 -16.25,-15.63 -0.63,-3.13 -0.84,-6.67 -0.84,-10.42l0 -35.85c0,-13.13 -1.87,-21.04 -5.62,-24.38 -1.67,-1.25 -3.55,-1.87 -5.63,-2.29l38.97 -13.76z"/>
    <path class="fil0" d="M1032.38 64.18c19.38,0 32.09,6.26 38.55,18.55 1.46,3.13 2.5,6.46 3.13,10.21l2.71 23.97c1.25,13.13 3.96,21.04 8.12,24.17 1.67,1.25 3.54,1.88 5.84,2.29l-25.43 0c-7.29,-0.2 -12.08,-2.91 -14.37,-8.54 -4.8,5.42 -11.67,8.54 -20.43,9.38 -1.67,0.21 -3.33,0.41 -4.79,0.41 -11.46,0 -19.59,-3.12 -24.38,-9.58 -2.29,-3.13 -3.54,-6.67 -3.54,-10.84 0,-8.75 4.79,-15.21 14.58,-19.17 1.25,-0.42 6.88,-2.29 16.88,-5.21 7.71,-2.29 12.51,-5.21 14.38,-8.34 1.25,-2.5 1.25,-6.67 0.21,-12.5 -1.67,-6.67 -5.42,-10 -11.05,-10.21 -7.29,0 -12.5,5.42 -15.62,16.05 -1.05,3.54 -1.67,7.29 -1.88,10.83 -8.75,-2.29 -13.75,-6.25 -14.8,-11.88 -1.04,-5.21 1.67,-9.58 7.92,-13.54 5.84,-3.96 13.97,-5.84 23.97,-6.05zm13.54 31.26c-2.5,3.34 -6.66,7.51 -12.5,12.3 -4.58,3.75 -7.29,7.29 -8.13,11.04 -0.41,1.67 -0.62,3.55 -0.62,5.63 0,5.83 2.71,9.59 8.12,11.04 4.38,1.25 8.55,0.84 12.09,-1.66 3.34,-2.3 4.79,-5.21 4.38,-9.17l-3.34 -29.18z"/>
    <path class="fil0" d="M1124.49 26.88l0 90.03c0,13.13 1.87,21.04 5.83,24.17 1.46,1.25 3.34,1.88 5.63,2.29l-50.43 0c5,-0.83 8.33,-4.16 9.79,-9.79 0.84,-3.75 1.46,-9.38 1.46,-16.67l0 -49.6c0,-13.13 -1.88,-21.05 -5.63,-24.38 -1.66,-1.25 -3.54,-1.88 -5.62,-2.29l38.97 -13.76z"/>
   </g>
  </g>
  <g id="_1381798768032">
   <g>
    <path class="fil0" d="M63.98 120.24c21.67,0 43.55,0 65.85,0 -1.67,-3.33 -3.54,-6.46 -4.79,-9.79 -2.71,-6.88 -3.96,-14.17 -3.96,-21.67 -0.42,-21.26 -15.63,-31.89 -35.64,-24.6 -0.42,-1.04 -0.62,-2.08 -1.04,-3.12 -1.88,-4.17 -2.92,-7.71 3.54,-8.34 2.29,-0.21 1.67,-2.08 1.88,-3.54 0.41,-5.21 2.71,-8.13 6.87,-8.13 4.38,0 6.88,2.71 6.88,8.13 0,2.5 0.83,3.33 3.13,4.17 15.42,5 24.59,16.88 24.59,33.13 0,12.5 2.5,23.76 11.88,32.93 2.08,1.87 2.5,4.58 1.25,7.29 -1.25,2.92 -3.55,4.17 -6.67,4.17 -7.92,0 -15.84,0 -23.55,0 -18.76,0 -37.72,0 -56.48,0 -3.54,0 -7.08,-0.21 -8.54,-3.96 -1.67,-3.75 0.21,-6.67 2.92,-9.38 6.67,-6.67 9.17,-15 10,-24.17 0,-1.25 -0.63,-3.13 1.25,-3.54 2.71,-0.84 5.63,-1.46 8.54,-1.46 1.05,0 0.63,1.87 0.63,2.92 -0.21,9.58 -2.29,18.54 -7.5,26.88 -0.63,0.21 -1.46,0.83 -1.04,2.08z"/>
    <path class="fil0" d="M63.14 82.94c-9.37,0 -16.46,-7.08 -16.67,-16.25 0,-8.96 7.3,-16.26 16.47,-16.26 9.16,0 16.46,7.5 16.46,16.46 0,8.96 -7.3,16.05 -16.26,16.05z"/>
    <path class="fil0" d="M97.11 136.29c3.96,0 7.92,0 12.09,0 2.08,0 3.12,0.41 2.5,2.92 -1.46,6.04 -7.5,10.42 -14.59,10.62 -7.08,0.21 -13.13,-3.96 -15,-10 -0.84,-2.5 -0.42,-3.75 2.5,-3.54 4.17,0.21 8.33,0 12.5,0z"/>
   </g>
  </g>
  <path class="fil0" d="M93.99 187.97c-51.89,0 -93.99,-42.1 -93.99,-93.98 0,-51.89 42.1,-93.99 93.99,-93.99 51.88,0 93.98,42.1 93.98,93.99 -0.21,51.88 -42.3,93.98 -93.98,93.98zm0 -175.26c-45.02,0 -81.49,36.47 -81.49,81.48 0,45.02 36.47,81.49 81.49,81.49 45.01,0 81.48,-36.47 81.48,-81.49 -0.21,-45.01 -36.68,-81.48 -81.48,-81.48z"/>
 </g>
</svg>
